<svg width="34" height="34" viewBox="0 0 34 34" fill="none" xmlns="http://www.w3.org/2000/svg">
<path fill-rule="evenodd" clip-rule="evenodd" d="M17 33.93C7.66501 33.93 0.0700073 26.335 0.0700073 17C0.0700073 7.66501 7.66501 0.0700073 17 0.0700073C26.335 0.0700073 33.93 7.66501 33.93 17C33.93 26.335 26.335 33.93 17 33.93ZM17 1.93001C8.69001 1.93001 1.93001 8.69001 1.93001 17C1.93001 25.31 8.69001 32.07 17 32.07C25.31 32.07 32.07 25.31 32.07 17C32.07 8.69001 25.31 1.93001 17 1.93001Z" fill="black"/>
<path fill-rule="evenodd" clip-rule="evenodd" d="M22.293 25.707L16 19.414V8H18V18.586L23.707 24.293L22.293 25.707Z" fill="black"/>
</svg>
