<svg width="18" height="18" viewBox="0 0 18 18" fill="none" xmlns="http://www.w3.org/2000/svg">
<path fill-rule="evenodd" clip-rule="evenodd" d="M8.99932 17.9629C4.05726 17.9629 0.036377 13.942 0.036377 8.99999C0.036377 4.05793 4.05726 0.0370483 8.99932 0.0370483C13.9414 0.0370483 17.9623 4.05793 17.9623 8.99999C17.9623 13.942 13.9414 17.9629 8.99932 17.9629ZM8.99998 1.02176C4.60057 1.02176 1.02175 4.60059 1.02175 9C1.02175 13.3994 4.60057 16.9782 8.99998 16.9782C13.3994 16.9782 16.9782 13.3994 16.9782 9C16.9782 4.60059 13.3994 1.02176 8.99998 1.02176Z" fill="#4B72FF"/>
<path fill-rule="evenodd" clip-rule="evenodd" d="M11.8022 13.6096L8.47058 10.278V4.23529H9.5294V9.83964L12.5508 12.861L11.8022 13.6096Z" fill="#4B72FF"/>
</svg>
