<svg width="34" height="26" viewBox="0 0 34 26" fill="none" xmlns="http://www.w3.org/2000/svg">
<path fill-rule="evenodd" clip-rule="evenodd" d="M33.658 3.658L32.342 2.342L19.878 14.807C18.291 16.394 15.709 16.394 14.122 14.807L1.658 2.342L0.342003 3.658L9.649 12.964L0.342003 22.271L1.658 23.586L10.964 14.28L12.807 16.122C13.927 17.242 15.416 17.859 17 17.859C18.584 17.859 20.073 17.242 21.193 16.122L23.036 14.28L32.342 23.586L33.658 22.271L24.351 12.964L33.658 3.658Z" fill="black"/>
<path fill-rule="evenodd" clip-rule="evenodd" d="M31 26H3C1.346 26 0 24.654 0 23V3C0 1.346 1.346 0 3 0H31C32.654 0 34 1.346 34 3V23C34 24.654 32.654 26 31 26ZM3 2C2.449 2 2 2.449 2 3V23C2 23.551 2.449 24 3 24H31C31.551 24 32 23.551 32 23V3C32 2.449 31.551 2 31 2H3Z" fill="black"/>
</svg>
