<svg width="31" height="24" viewBox="0 0 31 24" fill="none" xmlns="http://www.w3.org/2000/svg">
<path fill-rule="evenodd" clip-rule="evenodd" d="M30.229 2.844C29.141 3.325 27.979 3.65 26.754 3.8C28.004 3.05 28.966 1.862 29.416 0.45C28.247 1.144 26.954 1.65 25.573 1.919C24.466 0.737 22.891 0 21.154 0C17.81 0 15.104 2.712 15.104 6.056C15.104 6.531 15.154 6.994 15.26 7.438C10.229 7.188 5.766 4.775 2.785 1.106C2.266 2 1.966 3.044 1.966 4.15C1.966 6.25 3.041 8.106 4.666 9.194C3.666 9.169 2.729 8.894 1.916 8.437V8.513C1.916 11.45 4.004 13.894 6.772 14.45C6.266 14.587 5.729 14.662 5.179 14.662C4.791 14.662 4.41 14.625 4.041 14.55C4.81 16.956 7.048 18.706 9.698 18.756C7.629 20.381 5.016 21.35 2.179 21.35C1.691 21.35 1.21 21.319 0.735001 21.263C3.404 23 6.585 24 9.997 24C21.141 24 27.229 14.769 27.229 6.762C27.229 6.5 27.222 6.237 27.21 5.981C28.391 5.125 29.416 4.063 30.229 2.844Z" fill="black"/>
</svg>
